<svg xmlns="http://www.w3.org/2000/svg" xmlns:xlink="http://www.w3.org/1999/xlink" width="170.17" height="80" viewBox="0 0 170.17 80">
  <defs>
    <linearGradient id="linear-gradient" x1="0.5" y1="-0.007" x2="0.5" y2="0.974" gradientUnits="objectBoundingBox">
      <stop offset="0" stop-color="#de5617"/>
      <stop offset="0.7" stop-color="#dd1322"/>
      <stop offset="1" stop-color="#dd1322"/>
    </linearGradient>
    <linearGradient id="linear-gradient-2" x1="0.5" y1="0.048" x2="0.5" y2="0.989" xlink:href="#linear-gradient"/>
    <linearGradient id="linear-gradient-3" x1="0.5" y1="0.006" x2="0.5" y2="1.377" gradientUnits="objectBoundingBox">
      <stop offset="0" stop-color="#932e87"/>
      <stop offset="0.7" stop-color="#202173"/>
      <stop offset="1" stop-color="#202173"/>
    </linearGradient>
    <linearGradient id="linear-gradient-4" x1="0.5" y1="-0.018" x2="0.5" y2="1.03" xlink:href="#linear-gradient-3"/>
    <linearGradient id="linear-gradient-5" y1="0.5" x2="1" y2="0.5" gradientUnits="objectBoundingBox">
      <stop offset="0" stop-color="#f7b900"/>
      <stop offset="0.3" stop-color="#f8b000"/>
      <stop offset="0.7" stop-color="#de5617"/>
      <stop offset="1" stop-color="#dd1322"/>
    </linearGradient>
  </defs>
  <g id="Grupo_4726" data-name="Grupo 4726" transform="translate(-301.636 -397.478)">
    <g id="Grupo_203" data-name="Grupo 203" transform="translate(305.636 428.428)">
      <path id="Caminho_69" data-name="Caminho 69" d="M306.512,450.19a16.729,16.729,0,0,0-.871,4.708,12.03,12.03,0,0,0,1.315,5.881c3.314,6.266,10.054,5.794,13.1,1.415-3.244.175-2.965-2.746-2.371-5.149.3-1.2.553-2.465.69-3.356l.136-.663,1.772-9.167c.846-3.993,6.953-3.335,6.016,1.318-.516,2.792-1.083,5.847-1.616,8.608-.583,3.019-1.521,7.572-2.138,10.6l10.138,0q.876-4.536,1.76-9.064c1.011-5.181,2.026-10.457,3.038-15.645l-16.914,0C315.662,439.679,308.186,443.05,306.512,450.19Z" transform="translate(-305.636 -438.218)" fill="url(#linear-gradient)"/>
      <path id="Caminho_69_-_Contorno" data-name="Caminho 69 - Contorno" d="M337.484,439.676l-16.914,0c-4.909,0-12.385,3.372-14.059,10.512a16.729,16.729,0,0,0-.871,4.708,12.03,12.03,0,0,0,1.315,5.881c3.314,6.266,10.054,5.794,13.1,1.415-3.243.174-2.965-2.746-2.371-5.149.3-1.2.553-2.465.69-3.356l.136-.663,1.772-9.167c.846-3.993,6.953-3.335,6.016,1.318-.516,2.792-1.083,5.847-1.616,8.608-.583,3.019-1.521,7.572-2.138,10.6l10.138,0q.876-4.536,1.76-9.064c1.011-5.181,2.026-10.457,3.038-15.645m0-4a4,4,0,0,1,3.926,4.766c-.507,2.6-1.023,5.262-1.522,7.838s-1.011,5.22-1.516,7.807c-.687,3.522-1.246,6.4-1.759,9.057a4,4,0,0,1-3.926,3.241l-10.138,0h0a4,4,0,0,1-2.391-.793,11.28,11.28,0,0,1-6.218,1.89,11.088,11.088,0,0,1-5.96-1.752,13.218,13.218,0,0,1-4.558-5.085l-.031-.06a16.076,16.076,0,0,1-1.747-7.8,20.394,20.394,0,0,1,1.015-5.68,16.136,16.136,0,0,1,2.893-6.008,18.209,18.209,0,0,1,4.61-4.205,19.829,19.829,0,0,1,10.409-3.217l16.913,0Z" transform="translate(-305.636 -438.218)" fill="#fff"/>
      <path id="Caminho_70" data-name="Caminho 70" d="M397.194,458.209c.1-.717.2-1.434.333-2.137l.215-1.114,1.319-6.8c.785-4.04-1.262-10-6.15-10.423-2.95-.258-7.587,2.77-9.441,4.426-4.678-7.174-12.723-3.317-16.61.52l.683-3.5H356.823c-1.625,8.232-3.261,16.464-4.839,24.706h10.742l3.555-18.118c.855-4.874,7.269-4.563,6.378-.042l-1.591,8.495-1.879,9.638h9.854l1.888-9.638,1.641-8.437c1.021-5.2,7.356-4.189,6.458-.012l-1.42,7.668-.592,3.116c-1.827,9.268,7.7,9.941,12.1,5.028C397.72,461.557,396.8,461.18,397.194,458.209Z" transform="translate(-319.033 -437.715)" fill="url(#linear-gradient-2)"/>
      <path id="Caminho_70_-_Contorno" data-name="Caminho 70 - Contorno" d="M392.477,464.6a9.165,9.165,0,0,0,6.641-3.022c-1.4-.021-2.319-.4-1.924-3.369.1-.717.2-1.434.333-2.137l.215-1.114,1.319-6.8c.785-4.04-1.262-10-6.15-10.423-2.95-.258-7.587,2.77-9.441,4.426-4.678-7.174-12.723-3.317-16.61.52l.683-3.5H356.823c-1.625,8.232-3.261,16.464-4.839,24.706h10.742l3.555-18.118c.855-4.874,7.269-4.563,6.378-.042l-1.591,8.495-1.879,9.638h9.854l1.888-9.638,1.641-8.437c1.021-5.2,7.356-4.189,6.458-.012l-1.42,7.668-.592,3.116c-1.1,5.586,1.921,8.05,5.461,8.05m0,4h0a10.459,10.459,0,0,1-4.006-.766,8.9,8.9,0,0,1-3.527-2.59,9.143,9.143,0,0,1-1.555-2.775l-.422,2.154a4,4,0,0,1-3.925,3.231h-9.854A4,4,0,0,1,366.1,466.4q-.07-.085-.134-.172a4,4,0,0,1-3.241,1.655H351.983a4,4,0,0,1-3.929-4.752c1.319-6.887,2.7-13.877,4.036-20.637q.4-2.046.808-4.092a4,4,0,0,1,3.924-3.226h10.722a4,4,0,0,1,2.183.648,15.66,15.66,0,0,1,6.83-1.688,11.574,11.574,0,0,1,5.6,1.4,11.8,11.8,0,0,1,1.861,1.259c.539-.342,1.092-.668,1.64-.966a14.879,14.879,0,0,1,6.889-2.111c.241,0,.481.01.714.031a9.774,9.774,0,0,1,4.221,1.366,10.638,10.638,0,0,1,3.009,2.742,14.555,14.555,0,0,1,2.5,11.063l-1.534,7.914c-.082.423-.15.861-.22,1.353a4,4,0,0,1,.862,6.065,13.143,13.143,0,0,1-9.618,4.351Z" transform="translate(-319.033 -437.715)" fill="#fff"/>
    </g>
    <g id="Grupo_204" data-name="Grupo 204" transform="translate(386.568 437.495)">
      <path id="Caminho_71" data-name="Caminho 71" d="M512.5,470.4c.1-.717.2-1.434.333-2.137l.216-1.113,1.318-6.8c.785-4.04-1.262-10-6.15-10.423-2.95-.258-7.587,2.77-9.441,4.426-4.678-7.174-12.723-3.318-16.61.52l.683-3.5H472.132c-1.625,8.232-3.261,16.465-4.839,24.706h10.742l3.555-18.117c.855-4.875,7.268-4.564,6.378-.042l-1.592,8.495-1.878,9.639h9.855l1.888-9.639,1.641-8.437c1.021-5.2,7.356-4.189,6.458-.012l-1.42,7.668-.592,3.117c-1.828,9.268,7.7,9.94,12.1,5.028C513.029,473.747,512.109,473.371,512.5,470.4Z" transform="translate(-433.296 -449.906)" fill="url(#linear-gradient-3)"/>
      <path id="Caminho_71_-_Contorno" data-name="Caminho 71 - Contorno" d="M507.786,476.791a9.166,9.166,0,0,0,6.641-3.022c-1.4-.022-2.318-.4-1.924-3.37.1-.717.2-1.434.333-2.137l.216-1.113,1.318-6.8c.785-4.04-1.262-10-6.15-10.423-2.95-.258-7.587,2.77-9.441,4.426-4.678-7.174-12.723-3.318-16.61.52l.683-3.5H472.132c-1.625,8.232-3.261,16.465-4.839,24.706h10.742l3.555-18.117c.855-4.875,7.268-4.564,6.378-.042l-1.592,8.495-1.878,9.639h9.855l1.888-9.639,1.641-8.437c1.021-5.2,7.356-4.189,6.458-.012l-1.42,7.668-.592,3.117c-1.1,5.586,1.92,8.05,5.46,8.05m0,4v0h0a10.457,10.457,0,0,1-4.005-.766,8.9,8.9,0,0,1-3.527-2.59,9.142,9.142,0,0,1-1.555-2.775l-.422,2.155a4,4,0,0,1-3.925,3.231H484.5a4,4,0,0,1-3.087-1.456q-.07-.085-.135-.173a4,4,0,0,1-3.241,1.655H467.292a4,4,0,0,1-3.929-4.752c1.323-6.9,2.707-13.913,4.046-20.69q.4-2.019.8-4.038a4,4,0,0,1,3.924-3.226h10.722a4,4,0,0,1,2.183.648,15.661,15.661,0,0,1,6.829-1.687,11.574,11.574,0,0,1,5.6,1.4,11.8,11.8,0,0,1,1.861,1.259c.539-.342,1.092-.668,1.639-.966a14.877,14.877,0,0,1,6.889-2.111c.241,0,.482.01.715.031a9.773,9.773,0,0,1,4.221,1.366,10.638,10.638,0,0,1,3.009,2.741,14.554,14.554,0,0,1,2.5,11.063l-1.534,7.917c-.085.44-.157.907-.219,1.35a4,4,0,0,1,.862,6.065A13.144,13.144,0,0,1,507.786,480.791Z" transform="translate(-433.296 -449.906)" fill="#fff"/>
      <path id="Caminho_72" data-name="Caminho 72" d="M442.345,450.97H425.989l-6.516,35.192,10.01-.051,5.259-28.953c1.045-5.544,6.507-5.526,6.893-2.7a12.415,12.415,0,0,1-.41,2.834l-2.077,11.29c-.774,3.723-1.734,4.836-4.214,5.306,2.613,4.664,8.836,3.8,13.027-.244a15.457,15.457,0,0,0,4.3-14.433C451.385,455.6,446.456,450.97,442.345,450.97Z" transform="translate(-419.473 -450.179)" fill="url(#linear-gradient-4)"/>
      <path id="Caminho_72_-_Contorno" data-name="Caminho 72 - Contorno" d="M425.989,450.97l-6.516,35.192,10.01-.051,5.259-28.953c1.045-5.544,6.507-5.526,6.893-2.7a12.415,12.415,0,0,1-.41,2.834l-2.077,11.29c-.774,3.723-1.734,4.836-4.214,5.306,2.613,4.664,8.836,3.8,13.027-.244a15.457,15.457,0,0,0,4.3-14.433c-.873-3.612-5.8-8.24-9.913-8.24H425.989m0-4h16.356a13.829,13.829,0,0,1,8.791,3.743,15.387,15.387,0,0,1,5.009,7.557,18.841,18.841,0,0,1-.38,10.035,19.508,19.508,0,0,1-5.027,8.216,15.261,15.261,0,0,1-10.336,4.522,10.254,10.254,0,0,1-5.64-1.616l-1.344,7.4a4,4,0,0,1-3.915,3.285l-10.01.051h-.02a4,4,0,0,1-3.933-4.728l6.516-35.192A4,4,0,0,1,425.989,446.97Z" transform="translate(-419.473 -450.179)" fill="#fff"/>
    </g>
    <path id="Caminho_73" data-name="Caminho 73" d="M460.936,427.147a109.354,109.354,0,0,0-70.3-25.669,110.658,110.658,0,0,0-70.471,25.907c20.723-12.26,46.847-18.312,70.372-18.3S440.193,415.162,460.936,427.147Z" transform="translate(-4.199 0)" fill="url(#linear-gradient-5)"/>
    <path id="Caminho_73_-_Contorno" data-name="Caminho 73 - Contorno" d="M320.162,427.385c20.7-12.25,46.807-18.3,70.315-18.3h.056c23.525.009,49.66,6.079,70.4,18.065a109.369,109.369,0,0,0-70.084-25.67h-.219a110.658,110.658,0,0,0-70.471,25.907m0,4a4,4,0,0,1-2.553-7.082,117.517,117.517,0,0,1,34.914-20.067,112.174,112.174,0,0,1,38.1-6.759h.227a111.457,111.457,0,0,1,37.946,6.651,115.746,115.746,0,0,1,34.693,19.941,4,4,0,0,1-4.556,6.541,118.689,118.689,0,0,0-15.905-7.619,140.092,140.092,0,0,0-17.221-5.488,149.887,149.887,0,0,0-17.761-3.311,142.716,142.716,0,0,0-17.515-1.11h-.055a141.755,141.755,0,0,0-17.5,1.106,147.106,147.106,0,0,0-17.732,3.33,136.4,136.4,0,0,0-17.185,5.553,115.414,115.414,0,0,0-15.864,7.756A3.985,3.985,0,0,1,320.165,431.386Z" transform="translate(-4.199 0)" fill="#fff"/>
  </g>
</svg>
